<?xml version="1.0" encoding="iso-8859-1"?>
<!-- Uploaded to: SVG Repo, www.svgrepo.com, Generator: SVG Repo Mixer Tools -->
<!DOCTYPE svg PUBLIC "-//W3C//DTD SVG 1.1//EN" "http://www.w3.org/Graphics/SVG/1.1/DTD/svg11.dtd">
<svg fill="#000000" version="1.1" id="Capa_1" xmlns="http://www.w3.org/2000/svg" xmlns:xlink="http://www.w3.org/1999/xlink" 
	 width="800px" height="800px" viewBox="0 0 422.865 422.865"
	 xml:space="preserve">
<g>
	<g>
		<path d="M287.584,58.234h-89.592c-10.376,0-18.813,8.438-18.813,18.814v70.778h-70.773c-10.375,0-18.813,8.438-18.813,18.813
			v70.774H18.813C8.438,237.414,0,245.848,0,256.226v89.591c0,10.374,8.438,18.814,18.813,18.814
			c10.373,0,18.814-8.44,18.814-18.814v-70.782h70.777c10.373,0,18.814-8.44,18.814-18.814v-70.771h70.778
			c10.373,0,18.813-8.438,18.813-18.814V95.862h70.778c10.372,0,18.812-8.438,18.812-18.813
			C306.401,66.672,297.956,58.234,287.584,58.234z M287.584,85.111h-81.529v81.529c0,4.457-3.607,8.063-8.063,8.063h-81.523v81.523
			c0,4.451-3.606,8.062-8.063,8.062H26.877v81.528c0,4.453-3.607,8.063-8.063,8.063s-8.063-3.61-8.063-8.063V256.22
			c0-4.451,3.607-8.062,8.063-8.062h81.529v-81.523c0-4.456,3.606-8.063,8.062-8.063h81.529V77.048c0-4.458,3.607-8.063,8.063-8.063
			h89.592c4.451,0,8.063,3.606,8.063,8.063C295.652,81.505,292.035,85.111,287.584,85.111z"/>
		<path d="M421.522,70.119L421.522,70.119l-0.09-0.241c-1.899-4.601-5.628-8.331-10.025-10.137l-0.493-0.173l0.011-0.016
			c-2.228-0.876-4.537-1.318-6.877-1.318h-57.335c-10.374,0-18.814,8.438-18.814,18.814c0,10.375,8.44,18.813,18.814,18.813h11.915
			l-30.592,30.592c-3.56,3.553-5.513,8.283-5.513,13.309s1.953,9.751,5.513,13.304c3.548,3.551,8.271,5.509,13.302,5.509
			c5.027,0,9.743-1.958,13.302-5.509l30.599-30.596v11.916c0,10.376,8.436,18.813,18.812,18.813
			c10.375,0,18.814-8.438,18.814-18.813V77.048C422.86,74.72,422.419,72.416,421.522,70.119z M412.109,134.382
			c0,4.458-3.61,8.063-8.062,8.063c-4.453,0-8.063-3.606-8.063-8.063V96.513l-48.946,48.948c-1.574,1.575-3.644,2.36-5.706,2.36
			c-2.063,0-4.131-0.785-5.705-2.36c-3.15-3.144-3.15-8.257,0-11.401l48.949-48.949h-37.868c-4.451,0-8.063-3.606-8.063-8.062
			c0-4.458,3.612-8.063,8.063-8.063h57.333c1.035,0,2.027,0.216,2.939,0.57c0.043,0.016,0.09,0.021,0.122,0.037
			c1.983,0.818,3.568,2.405,4.389,4.389c0.016,0.042,0.021,0.083,0.041,0.124c0.352,0.913,0.566,1.902,0.566,2.939v57.339H412.109z"
			/>
	</g>
</g>
</svg>