<?xml version="1.0" encoding="iso-8859-1"?>
<!-- Uploaded to: SVG Repo, www.svgrepo.com, Generator: SVG Repo Mixer Tools -->
<svg fill="#000000" height="800px" width="800px" version="1.1" id="Layer_1" xmlns="http://www.w3.org/2000/svg" xmlns:xlink="http://www.w3.org/1999/xlink" 
	 viewBox="0 0 330 330" xml:space="preserve">
<path id="XMLID_308_" d="M315,150H105V90c0-6.067-3.655-11.537-9.26-13.858c-5.606-2.322-12.058-1.038-16.347,3.252l-75,75
	c-5.858,5.858-5.858,15.355,0,21.213l75,75c2.87,2.87,6.705,4.394,10.61,4.394c1.932,0,3.881-0.374,5.737-1.142
	c5.605-2.322,9.26-7.791,9.26-13.858v-60h210c8.284,0,15-6.716,15-15C330,156.716,323.284,150,315,150z M75,203.787L36.213,165
	L75,126.213V203.787z"/>
</svg>