<svg xmlns="http://www.w3.org/2000/svg" version="1.1" xmlns:xlink="http://www.w3.org/1999/xlink" xmlns:svgjs="http://svgjs.dev/svgjs" width="100%" height="100%" viewBox="0 0 1000 600"><rect width="1000" height="600" x="0" y="0" fill="#2F4052ff"/><g><circle r="166.66666666666666" cx="406.8014475504557" cy="429.023581793081" fill="#1E2F41ff" transform="matrix(0.5205411502063094,0,0,0.5205411502063094,0,76.67555623579759)"/><path d="M266.79371999548357 504.023578235553L245.88322605890303 504.023578235553L245.88322605890303 354.0235774506358L276.0529793031945 354.0235774506358Q291.04783534873746 354.0235774506358 300.8729382808085 358.01020298590026Q310.69804121287956 361.99682852116473 315.40483136096594 370.7931248634901Q320.13734167379596 379.5894212058155 320.13734167379596 393.83839247379285L320.13734167379596 393.83839247379285Q320.13734167379596 402.5318081571437 318.2854898122538 409.682013955876Q316.4336379507116 416.8064995898647 312.3441317564726 421.71905105590025Q308.28034572697726 426.6058823571921 301.6188230583741 428.84353668988894L301.6188230583741 428.84353668988894L322.9151194661093 504.023578235553L302.7247901423507 504.023578235553L283.1003044429523 433.65320749694985L266.79371999548357 433.65320749694985L266.79371999548357 504.023578235553ZM266.79371999548357 369.01843349617883L266.79371999548357 418.6583514514069L274.76697106601245 418.6583514514069Q283.6404279025687 418.6583514514069 289.1959834871953 416.42069711871005Q294.75153907182187 414.2087629507569 297.34927571092965 408.8332485193358Q299.9470123500374 403.4577340879148 299.9470123500374 393.83839247379285L299.9470123500374 393.83839247379285Q299.9470123500374 380.69538828979205 295.13734154297646 374.8569108929854Q290.32767073591555 369.01843349617883 276.0529793031945 369.01843349617883L276.0529793031945 369.01843349617883L266.79371999548357 369.01843349617883ZM400.5128564976756 504.023578235553L341.9737615411476 504.023578235553L341.9737615411476 354.0235774506358L400.127054026521 354.0235774506358L400.127054026521 369.5842771205389L362.9099756424718 369.5842771205389L362.9099756424718 419.19847491102337L393.10544905150687 419.19847491102337L393.10544905150687 434.01328980336086L362.9099756424718 434.01328980336086L362.9099756424718 489.02872219001L400.5128564976756 489.02872219001L400.5128564976756 504.023578235553ZM428.8307578804249 504.023578235553L409.20627218102646 504.023578235553L441.04783613365464 354.0235774506358L461.2381654574132 354.0235774506358L493.28549072799046 504.023578235553L473.4552437106429 504.023578235553L466.6136798888342 466.24065622714363L436.05812417338814 466.24065622714363L428.8307578804249 504.023578235553ZM451.2330213721366 383.65320723531084L438.83590196570145 451.24580018160066L463.83590209652095 451.24580018160066L451.2330213721366 383.65320723531084ZM567.7196474960888 504.023578235553L508.460387926739 504.023578235553L508.460387926739 354.0235774506358L529.3966020280632 354.0235774506358L529.3966020280632 489.02872219001L567.7196474960888 489.02872219001L567.7196474960888 504.023578235553Z " fill="#ffffff" transform="matrix(0.5205411502063094,0,0,0.5205411502063094,0,76.67555623579759)"/><path d="M673.8932384506002 476.63044228948525L656.8014389316102 476.63044228948525L656.8014389316102 354.0235852233727L681.461562960854 354.0235852233727Q693.7180440427373 354.0235852233727 701.7488772730622 357.2821693875097Q709.7797105033872 360.54075355164684 713.6269421294329 367.73066183638804Q717.4951968791182 374.9205701211292 717.4951968791182 386.56738061746427L717.4951968791182 386.56738061746427Q717.4951968791182 393.6731964076471 715.9815319770674 399.51762477945425Q714.4678670750167 405.3410300276218 711.1251904163212 409.35644664278425Q707.8035368812654 413.35084013430713 702.3585478586106 415.1798518909518L702.3585478586106 415.1798518909518L719.7656942321944 476.63044228948525L703.262542175113 476.63044228948525L687.2218988381028 419.1111760115559L673.8932384506002 419.1111760115559L673.8932384506002 476.63044228948525ZM673.8932384506002 366.280066305256L673.8932384506002 406.8546949296726L680.4104067788743 406.8546949296726Q687.6633844345342 406.8546949296726 692.2043791406866 405.02568317302786Q696.7453738468389 403.2176945400228 698.8687093344379 398.8238616993477Q700.9920448220369 394.4300288586725 700.9920448220369 386.56738061746427L700.9920448220369 386.56738061746427Q700.9920448220369 375.8245644376317 697.0607207014327 371.0523153714439Q693.1293965808287 366.280066305256 681.461562960854 366.280066305256L681.461562960854 366.280066305256L673.8932384506002 366.280066305256ZM756.8504843324383 477.8497834605817L756.8504843324383 477.8497834605817Q746.5491537490373 477.8497834605817 740.9570028609052 473.83436684541925Q735.3438288491336 469.8189502302568 733.1574239906158 462.0193713599674Q730.971019132098 454.219792489678 730.971019132098 442.8673057242972L730.971019132098 442.8673057242972L730.971019132098 422.8953382666828Q730.971019132098 411.2485277703477 733.2415164851741 403.5120182709771Q735.5120138382504 395.79653189524606 741.1882572209407 391.865207774642Q746.8645006036311 387.9338836540379 756.8504843324383 387.9338836540379L756.8504843324383 387.9338836540379Q767.8876242432252 387.9338836540379 773.1223820294841 392.47487836019025Q778.3361166921035 397.0158730663425 779.9969434596313 405.57228438765736Q781.6787933507989 414.1076725853325 781.6787933507989 426.06982993626156L781.6787933507989 426.06982993626156L781.6787933507989 433.19666885008394L747.1588243345855 433.19666885008394L747.1588243345855 450.75097708914495Q747.1588243345855 456.0488042463227 748.1469111456463 459.37045778137855Q749.1349979567073 462.713134440074 751.321402815225 464.2898687130435Q753.5078076737428 465.8876261096527 756.9976461979155 465.8876261096527L756.9976461979155 465.8876261096527Q760.6346465875653 465.8876261096527 762.5267277151287 464.1427068475664Q764.4188088426922 462.3977875854801 765.0915487991592 459.139203421343Q765.7853118792658 455.90164238084554 765.7853118792658 451.50780954017034L765.7853118792658 451.50780954017034L765.7853118792658 446.2099823829927L781.5106083616822 446.2099823829927L781.5106083616822 449.5316359180485Q781.5106083616822 462.713134440074 775.9184574735501 470.2814589503279Q770.3263065854181 477.8497834605817 756.8504843324383 477.8497834605817ZM747.1588243345855 419.7208465971041L747.1588243345855 424.4090031687336L765.7853118792658 424.4090031687336L765.7853118792658 416.54635492752544Q765.7853118792658 411.08034278123097 765.1756412937175 407.3802730206624Q764.5659707081693 403.68020326009383 762.6738895806059 401.7881221325304Q760.7818084530425 399.89604100496695 756.7033224669611 399.89604100496695L756.7033224669611 399.89604100496695Q752.7509752227174 399.89604100496695 750.7117322296768 401.70402963797204Q748.6724892366362 403.5120182709771 747.9156567856108 407.84278174073347Q747.1588243345855 412.1525220868503 747.1588243345855 419.7208465971041L747.1588243345855 419.7208465971041ZM809.5134090496215 477.8497834605817L809.5134090496215 477.8497834605817Q804.3837668815604 477.8497834605817 800.4314196373168 474.88552302739896Q796.5000955167127 471.9422857178558 794.2295981636365 467.3171985171451Q791.9591008105604 462.713134440074 791.9591008105604 457.56246914837345L791.9591008105604 457.56246914837345Q791.9591008105604 449.38447405257136 794.6921068837075 443.7923231644393Q797.4040898332153 438.1791491526677 802.1763388994032 434.331917526622Q806.948587965591 430.4636627769367 813.2345019338295 427.58349483831233Q819.5204159020682 424.7033268996879 826.4790698267739 421.9913439501803L826.4790698267739 421.9913439501803L826.4790698267739 415.78952247650005Q826.4790698267739 410.49169531932233 825.8693992412257 407.00185679514976Q825.2597286556773 403.5120182709771 823.3676475281139 401.7881221325304Q821.4755664005504 400.0432028704441 817.6914041454235 400.0432028704441L817.6914041454235 400.0432028704441Q814.3697506103676 400.0432028704441 812.330507617327 401.55686777249485Q810.2702415006468 403.07053267454563 809.3662471841443 405.8666081186116Q808.4622528676417 408.66268356267767 808.4622528676417 412.44684581780456L808.4622528676417 412.44684581780456L808.4622528676417 416.84067865847976L792.4216095306315 416.2310080729315Q792.7159332615857 401.70402963797204 799.0859397243828 394.80844508418517Q805.4349230635402 387.9338836540379 818.7635834510428 387.9338836540379L818.7635834510428 387.9338836540379Q831.7768969839515 387.9338836540379 837.2218860066064 395.03969944422073Q842.6668750292613 402.16653835804306 842.6668750292613 415.6213374873833L842.6668750292613 415.6213374873833L842.6668750292613 455.5862955262516Q842.6668750292613 459.68580463597243 842.8981293892969 463.4699668910994Q843.1293837493324 467.2541291462263 843.507799974845 470.4916901867238Q843.8862162003577 473.7502743508609 844.1805399313121 476.63044228948525L844.1805399313121 476.63044228948525L829.3592377653982 476.63044228948525Q828.8967290453272 474.21278307093195 828.2239890888602 470.4916901867238Q827.5302260087535 466.79162042615525 827.2359022777993 463.7642906220537L827.2359022777993 463.7642906220537Q825.7222373757485 468.9149559137542 821.4124970296316 473.3718581253482Q817.0817335598753 477.8497834605817 809.5134090496215 477.8497834605817ZM815.8834155124184 463.9114524875309L815.8834155124184 463.9114524875309Q818.3010747309718 463.9114524875309 820.4244102185708 462.54494945095723Q822.5477457061697 461.1994695380232 824.2085724736977 459.4545502759369Q825.8693992412257 457.7096310138506 826.4790698267739 456.65847483187093L826.4790698267739 456.65847483187093L826.4790698267739 431.8301658135103Q822.6949075716469 433.9535013011093 819.3522309129514 436.05581366506874Q816.0305773778956 438.1791491526677 813.5288256647839 440.53373900030226Q811.0270739516723 442.8673057242972 809.5975015441797 445.8315661574799Q808.1679291366875 448.7748034670231 808.1679291366875 452.55896572215005L808.1679291366875 452.55896572215005Q808.1679291366875 457.85679287932777 810.1230796351697 460.8841226834293Q812.0992532572915 463.9114524875309 815.8834155124184 463.9114524875309ZM875.9675028743783 476.63044228948525L859.7796976718909 476.63044228948525L859.7796976718909 354.0235852233727L875.9675028743783 354.0235852233727L875.9675028743783 476.63044228948525ZM976.7733807262318 476.63044228948525L928.9457744461554 476.63044228948525L928.9457744461554 354.0235852233727L976.4790569952775 354.0235852233727L976.4790569952775 366.7425750253271L946.0585970887848 366.7425750253271L946.0585970887848 407.296180526104L970.7187211180287 407.296180526104L970.7187211180287 419.40549974251024L946.0585970887848 419.40549974251024L946.0585970887848 464.3739612076019L976.7733807262318 464.3739612076019L976.7733807262318 476.63044228948525ZM1008.875690523892 477.8497834605817L1008.875690523892 477.8497834605817Q998.1328743440594 477.8497834605817 991.6157060157852 471.101360772272Q985.098537687511 464.3739612076019 984.1945433710085 453.31579817317544L984.1945433710085 453.31579817317544L997.6703656239883 449.23731218709423Q998.8897067950847 457.56246914837345 1001.7488516100696 461.7250476290131Q1004.6290195486939 465.8876261096527 1010.2421935604655 465.8876261096527L1010.2421935604655 465.8876261096527Q1014.615003277501 465.8876261096527 1016.8855006305773 463.385874396541Q1019.1559979836534 460.8841226834293 1019.1559979836534 456.65847483187093L1019.1559979836534 456.65847483187093Q1019.1559979836534 452.874312576744 1017.4951712161255 449.84698277264243Q1015.8343444485976 446.8196529685409 1012.0501821934706 443.62413817532257L1012.0501821934706 443.62413817532257L997.06069503844 430.757986507891Q992.5197003322877 426.82666238728694 989.4293011572674 421.9913439501803Q986.3178788586075 417.1350023894341 986.3178788586075 409.41951601370306L986.3178788586075 409.41951601370306Q986.3178788586075 402.46086208899743 989.1139543026736 397.68861302280953Q991.9100297467395 392.9163639566217 996.9976256675213 390.4356353671496Q1002.0641984646635 387.9338836540379 1008.875690523892 387.9338836540379L1008.875690523892 387.9338836540379Q1019.7656685692016 387.9338836540379 1025.5260044464503 394.661283218708Q1031.2653172000596 401.4097059070177 1032.1903346402019 410.93318091575384L1032.1903346402019 410.93318091575384L1020.6696628857042 415.03269002547466Q1020.0810154237955 410.49169531932233 1018.8616742526991 407.08594928970814Q1017.6423330816026 403.68020326009383 1015.3718357285265 401.7881221325304Q1013.1013383754503 399.89604100496695 1009.4853611094402 399.89604100496695L1009.4853611094402 399.89604100496695Q1005.5330138651964 399.89604100496695 1003.1994471412015 402.5449545835558Q1000.844857293567 405.19386816214467 1000.844857293567 408.8098454281548L1000.844857293567 408.8098454281548Q1000.844857293567 411.08034278123097 1001.8329441046278 413.2877707633883Q1002.8210309156889 415.4741756219061 1005.2386901342421 417.59751110950515L1005.2386901342421 417.59751110950515L1020.6696628857042 431.8301658135103Q1023.8651776789225 434.7103337521347 1026.6612531229885 438.0319872871906Q1029.4573285670544 441.3536408222464 1031.2653172000596 445.6003117974444Q1033.0943289567044 449.84698277264243 1033.0943289567044 455.4391336607744L1033.0943289567044 455.4391336607744Q1033.0943289567044 462.8602963055511 1030.0669991526026 467.84277660813495Q1027.0396693485013 472.84628003435836 1021.5946803258463 475.34803174747003Q1016.1286681795518 477.8497834605817 1008.875690523892 477.8497834605817ZM1068.5182922894203 477.8497834605817L1068.5182922894203 477.8497834605817Q1061.7068002301917 477.8497834605817 1057.5442217495522 475.26393925291165Q1053.3816432689125 472.69911816888117 1051.489562141349 468.0109615972517Q1049.5974810137857 463.3017819019826 1049.5974810137857 456.9527985628252L1049.5974810137857 456.9527985628252L1049.5974810137857 399.89604100496695L1040.3473066123643 399.89604100496695L1040.3473066123643 389.1322017014948L1049.5974810137857 389.1322017014948L1049.5974810137857 363.5680833557484L1065.785286216273 363.5680833557484L1065.785286216273 389.1322017014948L1079.870779054801 389.1322017014948L1079.870779054801 399.89604100496695L1065.785286216273 399.89604100496695L1065.785286216273 455.90164238084554Q1065.785286216273 461.03128454890646 1067.446112983801 463.23871253106387Q1069.1069397513288 465.42511738958166 1073.816119446598 465.42511738958166L1073.816119446598 465.42511738958166Q1075.0144374940548 465.42511738958166 1076.612194890664 465.27795552410447Q1078.1889291636335 465.1307936586273 1079.7025940656843 464.98363179315015L1079.7025940656843 464.98363179315015L1079.7025940656843 476.92476602043956Q1076.6752642615827 477.38727474051063 1074.1104431775523 477.6185291005462Q1071.5456220935218 477.8497834605817 1068.5182922894203 477.8497834605817ZM1104.993411804116 477.8497834605817L1104.993411804116 477.8497834605817Q1099.8427465124155 477.8497834605817 1095.9114223918114 474.88552302739896Q1091.9800982712072 471.9422857178558 1089.709600918131 467.3171985171451Q1087.439103565055 462.713134440074 1087.439103565055 457.56246914837345L1087.439103565055 457.56246914837345Q1087.439103565055 449.38447405257136 1090.1510865145624 443.7923231644393Q1092.8840925877098 438.1791491526677 1097.6563416538977 434.331917526622Q1102.407567596446 430.4636627769367 1108.6934815646846 427.58349483831233Q1114.979395532923 424.7033268996879 1121.9380494576287 421.9913439501803L1121.9380494576287 421.9913439501803L1121.9380494576287 415.78952247650005Q1121.9380494576287 410.49169531932233 1121.3283788720805 407.00185679514976Q1120.7397314101718 403.5120182709771 1118.8476502826084 401.7881221325304Q1116.955569155045 400.0432028704441 1113.171406899918 400.0432028704441L1113.171406899918 400.0432028704441Q1109.8287302412227 400.0432028704441 1107.789487248182 401.55686777249485Q1105.7502442551413 403.07053267454563 1104.8462499386387 405.8666081186116Q1103.9212324984967 408.66268356267767 1103.9212324984967 412.44684581780456L1103.9212324984967 412.44684581780456L1103.9212324984967 416.84067865847976L1087.8805891614866 416.2310080729315Q1088.1959360160804 401.70402963797204 1094.5449193552377 394.80844508418517Q1100.8939026943951 387.9338836540379 1114.2225630818978 387.9338836540379L1114.2225630818978 387.9338836540379Q1127.2358766148066 387.9338836540379 1132.6808656374615 395.03969944422073Q1138.1468777837558 402.16653835804306 1138.1468777837558 415.6213374873833L1138.1468777837558 415.6213374873833L1138.1468777837558 455.5862955262516Q1138.1468777837558 459.68580463597243 1138.3571090201517 463.4699668910994Q1138.5883633801873 467.2541291462263 1138.9667796057 470.4916901867238Q1139.3451958312125 473.7502743508609 1139.6605426858066 476.63044228948525L1139.6605426858066 476.63044228948525L1124.8182173962532 476.63044228948525Q1124.355708676182 474.21278307093195 1123.682968719715 470.4916901867238Q1123.010228763248 466.79162042615525 1122.6948819086542 463.7642906220537L1122.6948819086542 463.7642906220537Q1121.1812170066034 468.9149559137542 1116.8714766604867 473.3718581253482Q1112.56173631437 477.8497834605817 1104.993411804116 477.8497834605817ZM1111.3423951432733 463.9114524875309L1111.3423951432733 463.9114524875309Q1113.7600543618266 463.9114524875309 1115.8833898494256 462.54494945095723Q1118.0067253370248 461.1994695380232 1119.6675521045527 459.4545502759369Q1121.3283788720805 457.7096310138506 1121.9380494576287 456.65847483187093L1121.9380494576287 456.65847483187093L1121.9380494576287 431.8301658135103Q1118.153887202502 433.9535013011093 1114.832233667446 436.05581366506874Q1111.4895570087506 438.1791491526677 1109.0088284192784 440.53373900030226Q1106.5070767061666 442.8673057242972 1105.0564811750346 445.8315661574799Q1103.6269087675423 448.7748034670231 1103.6269087675423 452.55896572215005L1103.6269087675423 452.55896572215005Q1103.6269087675423 457.85679287932777 1105.6030823896642 460.8841226834293Q1107.5582328881464 463.9114524875309 1111.3423951432733 463.9114524875309ZM1176.8924946515276 477.8497834605817L1176.8924946515276 477.8497834605817Q1170.0810025922992 477.8497834605817 1165.9184241116595 475.26393925291165Q1161.7558456310198 472.69911816888117 1159.8637645034564 468.0109615972517Q1157.971683375893 463.3017819019826 1157.971683375893 456.9527985628252L1157.971683375893 456.9527985628252L1157.971683375893 399.89604100496695L1148.7425320981113 399.89604100496695L1148.7425320981113 389.1322017014948L1157.971683375893 389.1322017014948L1157.971683375893 363.5680833557484L1174.1594885783804 363.5680833557484L1174.1594885783804 389.1322017014948L1188.2449814169086 389.1322017014948L1188.2449814169086 399.89604100496695L1174.1594885783804 399.89604100496695L1174.1594885783804 455.90164238084554Q1174.1594885783804 461.03128454890646 1175.8203153459083 463.23871253106387Q1177.502165237076 465.42511738958166 1182.1903218087054 465.42511738958166L1182.1903218087054 465.42511738958166Q1183.3886398561622 465.42511738958166 1184.9863972527714 465.27795552410447Q1186.5841546493807 465.1307936586273 1188.0978195514313 464.98363179315015L1188.0978195514313 464.98363179315015L1188.0978195514313 476.92476602043956Q1185.0704897473297 477.38727474051063 1182.4846455396596 477.6185291005462Q1179.9198244556292 477.8497834605817 1176.8924946515276 477.8497834605817ZM1224.42577720065 477.8497834605817L1224.42577720065 477.8497834605817Q1214.1244466172489 477.8497834605817 1208.5322957291169 473.83436684541925Q1202.9191217173452 469.8189502302568 1200.7327168588272 462.0193713599674Q1198.52528887667 454.219792489678 1198.52528887667 442.8673057242972L1198.52528887667 442.8673057242972L1198.52528887667 422.8953382666828Q1198.52528887667 411.2485277703477 1200.7957862297462 403.5120182709771Q1203.0662835828223 395.79653189524606 1208.7425269655128 391.865207774642Q1214.418770348203 387.9338836540379 1224.42577720065 387.9338836540379L1224.42577720065 387.9338836540379Q1235.4629171114366 387.9338836540379 1240.6976748976956 392.47487836019025Q1245.911409560315 397.0158730663425 1247.5722363278428 405.57228438765736Q1249.2330630953707 414.1076725853325 1249.2330630953707 426.06982993626156L1249.2330630953707 426.06982993626156L1249.2330630953707 433.19666885008394L1214.7341172027968 433.19666885008394L1214.7341172027968 450.75097708914495Q1214.7341172027968 456.0488042463227 1215.722204013858 459.37045778137855Q1216.6892677012793 462.713134440074 1218.8966956834367 464.2898687130435Q1221.0831005419545 465.8876261096527 1224.572939066127 465.8876261096527L1224.572939066127 465.8876261096527Q1228.2099394557767 465.8876261096527 1230.1020205833402 464.1427068475664Q1231.9941017109036 462.3977875854801 1232.6668416673706 459.139203421343Q1233.3395816238376 455.90164238084554 1233.3395816238376 451.50780954017034L1233.3395816238376 451.50780954017034L1233.3395816238376 446.2099823829927L1249.0859012298936 446.2099823829927L1249.0859012298936 449.5316359180485Q1249.0859012298936 462.713134440074 1243.4937503417616 470.2814589503279Q1237.8805763299902 477.8497834605817 1224.42577720065 477.8497834605817ZM1214.7341172027968 419.7208465971041L1214.7341172027968 424.4090031687336L1233.3395816238376 424.4090031687336L1233.3395816238376 416.54635492752544Q1233.3395816238376 411.08034278123097 1232.750934161929 407.3802730206624Q1232.1412635763809 403.68020326009383 1230.2491824488175 401.7881221325304Q1228.357101321254 399.89604100496695 1224.257592211533 399.89604100496695L1224.257592211533 399.89604100496695Q1220.3262680909288 399.89604100496695 1218.2870250978883 401.70402963797204Q1216.2477821048478 403.5120182709771 1215.4909496538226 407.84278174073347Q1214.7341172027968 412.1525220868503 1214.7341172027968 419.7208465971041L1214.7341172027968 419.7208465971041ZM1309.3381735809703 476.63044228948525L1293.29753024396 476.63044228948525L1319.3241573097773 354.0235852233727L1335.8273093668588 354.0235852233727L1362.0010982981535 476.63044228948525L1345.813293095666 476.63044228948525L1340.221142207534 445.74747366292155L1315.2456713236963 445.74747366292155L1309.3381735809703 476.63044228948525ZM1327.6493142710567 378.24222365618505L1317.5161686767724 433.49099258103826L1337.9506448544578 433.49099258103826L1327.6493142710567 378.24222365618505ZM1396.2267435834126 504.0235723918763L1396.2267435834126 504.0235723918763Q1388.1959103530874 504.0235723918763 1381.7628345193718 502.27865312979003Q1375.3297586856559 500.5547569913433 1371.6296889250875 496.9177566016935Q1367.9085960408793 493.28075621204374 1367.9085960408793 487.3732584693178L1367.9085960408793 487.3732584693178Q1367.9085960408793 482.8322637631655 1370.0319315284785 479.4265177335513Q1372.1552670160775 476.02077170393704 1375.4769205511332 473.60311248538375Q1378.8195972098285 471.1854532668304 1382.4355744758388 469.8189502302568L1382.4355744758388 469.8189502302568L1390.0038989860925 470.8701064122365Q1388.0487484876105 472.69911816888117 1386.2197367309657 474.59119929644464Q1384.4117480979605 476.4832804240081 1383.1924069268641 478.5225234170487Q1381.9940888794074 480.5617664100893 1381.9940888794074 482.9794256286427L1381.9940888794074 482.9794256286427Q1381.9940888794074 486.93177287288637 1385.3998349090216 488.8869233713686Q1388.8055809386358 490.86309699349044 1397.5722234963466 490.86309699349044L1397.5722234963466 490.86309699349044Q1406.2127273122196 490.86309699349044 1410.3753057928593 488.8238540004498Q1414.537884273499 486.7635878837696 1414.537884273499 482.39077816673404L1414.537884273499 482.39077816673404Q1414.537884273499 479.6577720935868 1413.4657049678797 477.9128528315005Q1412.4145487858998 476.1679335694142 1409.8497277018694 475.1167773874345Q1407.2638834941993 474.06562120545476 1402.4285650570926 473.60311248538375L1402.4285650570926 473.60311248538375L1383.360591915981 471.1854532668304Q1377.4530941732548 470.428620815805 1374.5729262346306 467.40129101170345Q1371.692758296006 464.3739612076019 1371.692758296006 460.73696081795214L1371.692758296006 460.73696081795214Q1371.692758296006 455.2919717952973 1374.8041805946661 451.50780954017034Q1377.8945797696865 447.72364728504346 1383.1924069268641 443.03549071341394L1383.1924069268641 443.03549071341394L1388.6584190731587 447.2611385649723Q1387.7334016330167 448.48047973606884 1386.3879217200827 450.6668845945866Q1385.021418683509 452.874312576744 1385.021418683509 454.9766249407034L1385.021418683509 454.9766249407034Q1385.021418683509 456.65847483187093 1386.766337945595 457.7096310138506Q1388.490234084042 458.7607871958303 1392.2743963391688 459.07613405042423L1392.2743963391688 459.07613405042423L1406.9695597632451 460.4426370869978Q1417.2498672230065 461.3466314035004 1422.25337064923 466.64445856067806Q1427.2568740754534 471.9422857178558 1427.2568740754534 481.78110758118584L1427.2568740754534 481.78110758118584Q1427.2568740754534 489.0340852368458 1423.851128045839 494.03758866306913Q1420.4453820162248 499.04109208929253 1413.6338899569964 501.52182067876464Q1406.8223978977678 504.0235723918763 1396.2267435834126 504.0235723918763ZM1396.8153910453211 449.6787977835257L1396.8153910453211 449.6787977835257Q1387.9015866221332 449.6787977835257 1382.2884126103615 445.74747366292155Q1376.6962617222296 441.8161495423175 1374.0473481436409 434.85749561761185Q1371.398434565052 427.8988416929062 1371.398434565052 418.96401414607874L1371.398434565052 418.96401414607874Q1371.398434565052 408.8098454281548 1374.2786025036762 401.93528399800755Q1377.137747318661 395.03969944422073 1382.8139907013515 391.4867915491293Q1388.490234084042 387.9338836540379 1396.8153910453211 387.9338836540379L1396.8153910453211 387.9338836540379Q1405.455894861194 387.9338836540379 1410.9008838838492 392.2436240001547Q1416.345872906504 396.55336434627145 1418.931717114174 403.68020326009383Q1421.4965381982045 410.78601905027665 1421.4965381982045 419.40549974251024L1421.4965381982045 419.40549974251024Q1421.4965381982045 428.3403272893377 1419.1419483505701 435.23591184312454Q1416.808381626575 442.1104732732718 1411.426461974839 445.89463552839874Q1406.0655654467425 449.6787977835257 1396.8153910453211 449.6787977835257ZM1396.8153910453211 438.0319872871906L1396.8153910453211 438.0319872871906Q1400.1580677040167 438.0319872871906 1402.1132182024987 436.7495767451753Q1404.0893918246209 435.4671662031601 1405.0774786356817 433.0284838609672Q1406.0655654467425 430.6108246424139 1406.4439816722554 427.05791674732245Q1406.8223978977678 423.5050088522311 1406.8223978977678 418.96401414607874L1406.8223978977678 418.96401414607874Q1406.8223978977678 414.4230194399264 1406.507051043174 410.78601905027665Q1406.2127273122196 407.1490186606269 1405.1405480066003 404.64726694751516Q1404.0893918246209 402.16653835804306 1402.1132182024987 400.80003532146947Q1400.1580677040167 399.4335322848959 1396.9835760344379 399.4335322848959L1396.9835760344379 399.4335322848959Q1393.6408993757425 399.4335322848959 1391.6016563827018 400.7159428269111Q1389.562413389661 401.99835336892636 1388.4271647131231 404.50010508203803Q1387.291916036585 407.00185679514976 1386.9134998110724 410.6388571847995Q1386.5350835855595 414.2758575744493 1386.5350835855595 418.96401414607874L1386.5350835855595 418.96401414607874Q1386.5350835855595 423.04250013216 1386.9134998110724 426.5323386563326Q1387.291916036585 430.00115405686563 1388.3430722185647 432.5869982645357Q1389.415251524184 435.15181934856616 1391.4544945172245 436.6024148796982Q1393.4937375102652 438.0319872871906 1396.8153910453211 438.0319872871906ZM1418.469208394103 403.827365125571L1418.469208394103 403.827365125571L1414.685046138976 397.7727055173679Q1415.9043873100725 395.64937002976893 1420.1300351616308 392.47487836019025Q1424.376706136829 389.3003866906115 1429.2120245739357 387.1770512030125L1429.2120245739357 387.1770512030125L1433.4586955491338 397.7727055173679Q1431.3353600615344 398.2141911137994 1427.7824521664431 399.4335322848959Q1424.2295442713519 400.65287345599234 1421.3493763327274 401.93528399800755Q1418.469208394103 403.2176945400228 1418.469208394103 403.827365125571ZM1463.2694848700778 477.8497834605817L1463.2694848700778 477.8497834605817Q1452.9891774103164 477.8497834605817 1447.3760033985448 473.83436684541925Q1441.7838525104128 469.8189502302568 1439.5764245282555 462.0193713599674Q1437.3900196697375 454.219792489678 1437.3900196697375 442.8673057242972L1437.3900196697375 442.8673057242972L1437.3900196697375 422.8953382666828Q1437.3900196697375 411.2485277703477 1439.6605170228138 403.5120182709771Q1441.93101437589 395.79653189524606 1447.6072577585803 391.865207774642Q1453.2835011412706 387.9338836540379 1463.2694848700778 387.9338836540379L1463.2694848700778 387.9338836540379Q1474.3276479045046 387.9338836540379 1479.5413825671237 392.47487836019025Q1484.7761403533825 397.0158730663425 1486.4369671209108 405.57228438765736Q1488.0977938884387 414.1076725853325 1488.0977938884387 426.06982993626156L1488.0977938884387 426.06982993626156L1488.0977938884387 433.19666885008394L1453.5778248722252 433.19666885008394L1453.5778248722252 450.75097708914495Q1453.5778248722252 456.0488042463227 1454.565911683286 459.37045778137855Q1455.553998494347 462.713134440074 1457.7404033528649 464.2898687130435Q1459.947831335022 465.8876261096527 1463.416646735555 465.8876261096527L1463.416646735555 465.8876261096527Q1467.0536471252049 465.8876261096527 1468.9457282527685 464.1427068475664Q1470.837809380332 462.3977875854801 1471.5315724604384 459.139203421343Q1472.2043124169054 455.90164238084554 1472.2043124169054 451.50780954017034L1472.2043124169054 451.50780954017034L1472.2043124169054 446.2099823829927L1487.9506320229614 446.2099823829927L1487.9506320229614 449.5316359180485Q1487.9506320229614 462.713134440074 1482.3374580111897 470.2814589503279Q1476.7453071230577 477.8497834605817 1463.2694848700778 477.8497834605817ZM1453.5778248722252 419.7208465971041L1453.5778248722252 424.4090031687336L1472.2043124169054 424.4090031687336L1472.2043124169054 416.54635492752544Q1472.2043124169054 411.08034278123097 1471.5946418313572 407.3802730206624Q1470.984971245809 403.68020326009383 1469.0928901182454 401.7881221325304Q1467.200808990682 399.89604100496695 1463.1223230046007 399.89604100496695L1463.1223230046007 399.89604100496695Q1459.1909988839968 399.89604100496695 1457.151755890956 401.70402963797204Q1455.0914897742757 403.5120182709771 1454.3346573232504 407.84278174073347Q1453.5778248722252 412.1525220868503 1453.5778248722252 419.7208465971041L1453.5778248722252 419.7208465971041ZM1518.9807625150022 476.63044228948525L1502.7719341888753 476.63044228948525L1502.7719341888753 389.1322017014948L1518.9807625150022 389.1322017014948L1518.9807625150022 397.7727055173679Q1523.3745953556775 393.6731964076471 1528.672422512855 390.8140515926623Q1533.9702496700327 387.9338836540379 1540.3192330091904 387.9338836540379L1540.3192330091904 387.9338836540379Q1545.6170601663678 387.9338836540379 1548.4131356104338 390.6458666035455Q1551.2092110545 393.37887267669277 1552.344459731038 397.457358662774Q1553.479708407576 401.55686777249485 1553.479708407576 405.78251562405325L1553.479708407576 405.78251562405325L1553.479708407576 476.63044228948525L1537.2919032050888 476.63044228948525L1537.2919032050888 410.49169531932233Q1537.2919032050888 405.78251562405325 1535.9254001685151 403.2176945400228Q1534.5588971319414 400.65287345599234 1530.3332492803831 400.65287345599234L1530.3332492803831 400.65287345599234Q1527.6002432072357 400.65287345599234 1524.6570058976927 402.22960772896187Q1521.69274546451 403.827365125571 1518.9807625150022 406.0978624786472L1518.9807625150022 406.0978624786472L1518.9807625150022 476.63044228948525ZM1593.15034271549 477.8497834605817L1593.15034271549 477.8497834605817Q1582.4075265356576 477.8497834605817 1576.8784450184442 473.51901999082537Q1571.3493635012312 469.20927964470854 1569.4572823736676 461.3466314035004Q1567.565201246104 453.4629600386526 1567.565201246104 443.03549071341394L1567.565201246104 443.03549071341394L1567.565201246104 422.8953382666828Q1567.565201246104 411.83717523225636 1569.541374868226 404.0586194856065Q1571.4965253667083 396.2590406153172 1577.0256068839215 392.09646213467755Q1582.5546884011346 387.9338836540379 1593.15034271549 387.9338836540379L1593.15034271549 387.9338836540379Q1602.6738177242262 387.9338836540379 1607.908575510485 391.0242828290582Q1613.1223101731046 394.13570512771815 1615.0984837952262 400.27445723047964Q1617.0536342937087 406.3921862096015 1617.0536342937087 415.4741756219061L1617.0536342937087 415.4741756219061L1617.0536342937087 420.62484091360665L1602.3794939932718 420.62484091360665L1602.3794939932718 415.327013756429Q1602.3794939932718 409.5666778791802 1601.6226615422465 406.2450243441244Q1600.865829091221 402.92337080906844 1598.8896554690994 401.4097059070177Q1596.934504970617 399.89604100496695 1593.2975045809674 399.89604100496695L1593.2975045809674 399.89604100496695Q1589.3661804603632 399.89604100496695 1587.2428449727643 401.70402963797204Q1585.1195094851653 403.5120182709771 1584.4467695286983 407.84278174073347Q1583.7530064485916 412.1525220868503 1583.7530064485916 419.573684731627L1583.7530064485916 419.573684731627L1583.7530064485916 447.1139766994952Q1583.7530064485916 458.31930159939884 1585.8763419361906 462.1034638545258Q1587.9996774237895 465.8876261096527 1593.4446664464444 465.8876261096527L1593.4446664464444 465.8876261096527Q1597.5441755561653 465.8876261096527 1599.4362566837287 463.99554498208926Q1601.3283378112922 462.1034638545258 1601.8539159022819 458.61362533035316Q1602.3794939932718 455.14480992982016 1602.3794939932718 450.75097708914495L1602.3794939932718 450.75097708914495L1602.3794939932718 443.62413817532257L1617.0536342937087 443.62413817532257L1617.0536342937087 449.6787977835257Q1617.0536342937087 458.46646346487597 1615.014391300668 464.8154468040334Q1612.9751483076273 471.1854532668304 1607.7614136450081 474.50710680188627Q1602.5266558587489 477.8497834605817 1593.15034271549 477.8497834605817ZM1632.0431214487392 498.57858336922146L1630.087970950257 498.57858336922146L1630.087970950257 486.174940421861Q1635.9744455693433 486.174940421861 1639.4642840935157 485.62833920723153Q1642.9541226176884 485.10276111624165 1644.4677875197392 483.67318870874925Q1645.98145242179 482.2225931776173 1645.98145242179 479.6577720935868L1645.98145242179 479.6577720935868Q1645.98145242179 478.2912690570132 1644.9092731161707 473.60311248538375Q1643.858116934191 468.9149559137542 1642.6387757630946 463.6171287565765L1642.6387757630946 463.6171287565765L1625.0844675240335 389.1322017014948L1641.4404577156376 389.1322017014948L1653.2344300774498 454.5351393442719L1664.5869168428308 389.1322017014948L1680.9429070344347 389.1322017014948L1660.0459221366784 481.4657607265919Q1658.6794191001047 487.8357671893889 1655.0634418340946 491.53583694995746Q1651.426441444445 495.2569298341656 1645.7501980617544 496.9177566016935Q1640.073954679064 498.57858336922146 1632.0431214487392 498.57858336922146L1632.0431214487392 498.57858336922146Z " fill="#ffffff" transform="matrix(0.5205411502063094,0,0,0.5205411502063094,0,76.67555623579759)"/></g></svg>